<svg xmlns="http://www.w3.org/2000/svg" xmlns:xlink="http://www.w3.org/1999/xlink" version="1.1" width="580" height="580" viewBox="0 0 500 500" xml:space="preserve">
<g transform="matrix(1 0 0 1 250 250)" id="e220a725-8e2c-4400-8aad-e214dda6437b"  >
<rect style="stroke: none; stroke-width: 1; stroke-dasharray: none; stroke-linecap: butt; stroke-dashoffset: 0; stroke-linejoin: miter; stroke-miterlimit: 4; fill: rgb(255,255,255); fill-rule: nonzero; opacity: 1; visibility: hidden;" vector-effect="non-scaling-stroke"  x="-250" y="-250" rx="0" ry="0" width="500" height="500" />
</g>
<g transform="matrix(0 0 0 0 0 0)" id="4aa92ce0-1f9f-405a-93b9-5db1c1f1ed95"  >
</g>
<g transform="matrix(0.88 0 0 0.88 219.55 250)"  >
<g style=""   >
		<g transform="matrix(1 0 0 1 2.48 32.01)"  >
<path style="stroke: rgb(0,0,0); stroke-width: 1; stroke-dasharray: none; stroke-linecap: butt; stroke-dashoffset: 0; stroke-linejoin: miter; stroke-miterlimit: 4; fill: none; fill-rule: nonzero; opacity: 1;" vector-effect="non-scaling-stroke"  transform=" translate(-330.48, -395.01)" d="M 465.594 259.894 C 519.381 313.68 552.914 377.505 563.668 437.198 C 574.422 496.892 562.391 552.403 525.13 589.664 C 487.869 626.925 432.358 638.955 372.664 628.201 C 312.972 617.448 249.146 583.914 195.36 530.128 C 141.574 476.341 108.04 412.516 97.2866 352.824 C 86.5325 293.129 98.5633 237.619 135.824 200.358 C 173.085 163.097 228.596 151.066 288.29 161.82 C 347.983 172.574 411.808 206.107 465.594 259.894 Z" stroke-linecap="round" />
</g>
		<g transform="matrix(1 0 0 1 34.75 -0.25)"  >
<path style="stroke: rgb(0,0,0); stroke-width: 1; stroke-dasharray: none; stroke-linecap: butt; stroke-dashoffset: 0; stroke-linejoin: miter; stroke-miterlimit: 4; fill: none; fill-rule: nonzero; opacity: 1;" vector-effect="non-scaling-stroke"  transform=" translate(-362.74, -362.74)" d="M 497.861 227.627 C 551.647 281.413 585.181 345.238 595.934 404.931 C 606.688 464.625 594.658 520.136 557.397 557.397 C 520.136 594.658 464.625 606.688 404.931 595.934 C 345.238 585.181 281.413 551.648 227.627 497.861 C 173.84 444.075 140.307 380.25 129.553 320.557 C 118.799 260.863 130.83 205.352 168.091 168.091 C 205.352 130.83 260.863 118.799 320.557 129.553 C 380.249 140.307 444.075 173.84 497.861 227.627 Z" stroke-linecap="round" />
</g>
		<g transform="matrix(1 0 0 1 67.01 -32.52)"  >
<path style="stroke: rgb(0,0,0); stroke-width: 1; stroke-dasharray: none; stroke-linecap: butt; stroke-dashoffset: 0; stroke-linejoin: miter; stroke-miterlimit: 4; fill: none; fill-rule: nonzero; opacity: 1;" vector-effect="non-scaling-stroke"  transform=" translate(-395.01, -330.48)" d="M 530.128 195.36 C 583.914 249.146 617.448 312.972 628.201 372.664 C 638.955 432.358 626.925 487.869 589.664 525.13 C 552.403 562.391 496.892 574.422 437.198 563.668 C 377.505 552.914 313.68 519.381 259.894 465.594 C 206.107 411.808 172.574 347.983 161.82 288.29 C 151.066 228.596 163.097 173.085 200.358 135.824 C 237.619 98.5633 293.13 86.5325 352.824 97.2866 C 412.516 108.04 476.342 141.574 530.128 195.36 Z" stroke-linecap="round" />
</g>
</g>
</g>
</svg>